<svg xmlns="http://www.w3.org/2000/svg" viewBox="118 61 112 112"><path fill="#ffffff" d="M197.936 113.117c-1.732 0-2.987.02-3.635.064.574-.691 1.148-1.435 1.403-1.818.255-.01.478-.01 1.541-.01 7.302 0 13.031.489 19.93 1.71l2.156-2.082c-7.642-1.371-14.55-1.998-22.16-1.998.49-.755.818-1.297 1.041-1.701.192-.021.532-.032.936-.032 6.25 0 16.038.978 21.8 2.179l2.252-2.18c-9.257-1.731-17.43-2.54-25.849-2.54-4.102 0-7.514.192-10.713.607-4.25 9.15-10.84 14.359-18.186 14.359-3.358 0-6.993-1.191-11.765-3.848l-5.655-3.156 1.074-.84 10.883 4.73 1.382-1.106-21.204-9.714-2.21 1.754-6.494-2.785.063 2.466c9.598 4.24 13.902 6.696 26.2 14.997 12.786 8.662 27.921 14.986 42.301 17.685l3.486-3.37h-.935c-9.97 0-20.258-4.261-26.54-11 6.59-4.028 12.967-5.781 21.056-5.781 3.135 0 6.685.212 9.608.574l2.157-2.073c-4.102-.606-8.439-.903-12.977-.903-3.189 0-5.867.117-8.3.372.33-.362 1.413-1.531 1.827-2.01 1.84-.105 3.89-.17 5.697-.17 5.081 0 10.745.415 15.38 1.138l2.157-2.094c-6.09-.977-11.702-1.424-17.707-1.424m30.564 4.702c0 27.585-22.376 49.96-49.96 49.96-27.586 0-49.962-22.375-49.962-49.96s22.376-49.961 49.961-49.961 49.961 22.376 49.961 49.96m3.19 0c0-29.391-23.759-53.15-53.15-53.15-29.393 0-53.15 23.759-53.15 53.15s23.757 53.15 53.15 53.15c29.391 0 53.15-23.757 53.15-53.15"/></svg>
